HIERARCHY
ROOT Hips
{
	OFFSET 0.000000 0.000000 0.000000
	CHANNELS 6 Xposition Yposition Zposition Zrotation Yrotation Xrotation 
	JOINT LowerBack
	{
		OFFSET 0.000000 0.000000 0.000000
		CHANNELS 3 Zrotation Yrotation Xrotation
		JOINT Spine
		{
			OFFSET 0.028270 2.035590 -0.193380
			CHANNELS 3 Zrotation Yrotation Xrotation
			JOINT Spine1
			{
				OFFSET 0.056720 2.048850 -0.042750
				CHANNELS 3 Zrotation Yrotation Xrotation
				JOINT Neck
				{
					OFFSET 0.000000 0.000000 0.000000
					CHANNELS 3 Zrotation Yrotation Xrotation
					JOINT Neck1
					{
						OFFSET -0.054170 1.746240 0.172020
						CHANNELS 3 Zrotation Yrotation Xrotation
						JOINT Head
						{
							OFFSET 0.104070 1.761360 -0.123970
							CHANNELS 3 Zrotation Yrotation Xrotation
							End Site
							{
								OFFSET 0.000000 0.000000 0.000000
							}
						}
					}
				}
				JOINT LeftShoulder
				{
					OFFSET 0.000000 0.000000 0.000000
					CHANNELS 3 Zrotation Yrotation Xrotation
					JOINT LeftArm
					{
						OFFSET 3.362410 1.200890 -0.311210
						CHANNELS 3 Zrotation Yrotation Xrotation
						JOINT LeftForeArm
						{
							OFFSET 4.983000 -0.000000 -0.000000
							CHANNELS 3 Zrotation Yrotation Xrotation
							JOINT LeftHand
							{
								OFFSET 3.483560 -0.000000 -0.000000
								CHANNELS 3 Zrotation Yrotation Xrotation
								JOINT LeftFingerBase
								{
									OFFSET 0.000000 0.000000 0.000000
									CHANNELS 3 Zrotation Yrotation Xrotation
									JOINT LeftHandIndex1
									{
										OFFSET 0.715260 -0.000000 -0.000000
										CHANNELS 3 Zrotation Yrotation Xrotation
										End Site
										{
											OFFSET 0.000000 0.000000 0.000000
										}
									}
								}
								JOINT LThumb
								{
									OFFSET 0.000000 0.000000 0.000000
									CHANNELS 3 Zrotation Yrotation Xrotation
									End Site
									{
										OFFSET 0.000000 0.000000 0.000000
									}
								}
							}
						}
					}
				}
				JOINT RightShoulder
				{
					OFFSET 0.000000 0.000000 0.000000
					CHANNELS 3 Zrotation Yrotation Xrotation
					JOINT RightArm
					{
						OFFSET -3.136600 1.374050 -0.404650
						CHANNELS 3 Zrotation Yrotation Xrotation
						JOINT RightForeArm
						{
							OFFSET -5.241900 -0.000000 -0.000000
							CHANNELS 3 Zrotation Yrotation Xrotation
							JOINT RightHand
							{
								OFFSET -3.444170 -0.000000 -0.000000
								CHANNELS 3 Zrotation Yrotation Xrotation
								JOINT RightFingerBase
								{
									OFFSET 0.000000 0.000000 0.000000
									CHANNELS 3 Zrotation Yrotation Xrotation
									JOINT RightHandIndex1
									{
										OFFSET -0.622530 -0.000000 -0.000000
										CHANNELS 3 Zrotation Yrotation Xrotation
										End Site
										{
											OFFSET 0.000000 0.000000 0.000000
										}
									}
								}
								JOINT RThumb
								{
									OFFSET 0.000000 0.000000 0.000000
									CHANNELS 3 Zrotation Yrotation Xrotation
									End Site
									{
										OFFSET 0.000000 0.000000 0.000000
									}
								}
							}
						}
					}
				}
			}
		}
	}
}
}
MOTION
Frames: 9
Frame Time: 0.008333
-10.800730 17.162822 -1.329591 2.136497 80.798465 7.209207 -4.090827 0.625531 -3.442689 -1.330796 0.779881 -2.959771 -5.025917 0.692100 3.027648 10.811728 -12.201119 -10.877062 -1.347687 -0.060509 -0.849748 0.000000 0.000000 0.000000 -3.860323 27.669132 1.807578 -80.896519 22.566908 3.547598 -3.878705 -18.269312 -0.018928 -5.840284 6.849045 -0.352709 -0.055557 -0.115717 -0.000000 0.000000 0.000000 0.000000 0.000000 0.000000 0.000000 9.980046 -6.072681 -0.030703 51.312105 16.471361 9.733359 1.971535 47.551482 0.014072 2.002297 6.685792 0.118021 0.051166 -0.186906 0.000000 0.000000 0.000000 0.000000 0.000000 0.000000 0.000000 
-10.621832 17.159508 -1.330034 3.868020 81.002001 8.787857 -4.383809 0.446828 -3.334950 -1.385685 0.625748 -2.951433 -5.061697 0.537646 2.981139 10.906002 -12.303091 -10.899381 -1.386356 -0.063174 -0.856465 0.000000 0.000000 0.000000 -3.770390 27.297739 1.801338 -80.562222 21.884265 3.897562 -3.879680 -18.150808 -0.018451 -5.717026 6.792735 -0.342193 -0.056960 -0.112527 -0.000000 0.000000 0.000000 0.000000 0.000000 0.000000 0.000000 10.214236 -6.222044 -0.050855 52.118972 15.859661 9.453512 2.007148 47.404834 0.014217 1.985999 6.678233 0.116837 0.053177 -0.185162 0.000000 0.000000 0.000000 0.000000 0.000000 0.000000 0.000000 
-10.446585 17.154864 -1.331912 5.436665 81.215352 10.234152 -4.608330 0.271866 -3.213742 -1.426704 0.470722 -2.941591 -5.094501 0.382607 2.928053 10.974336 -12.385980 -10.926289 -1.426106 -0.065860 -0.864531 0.000000 0.000000 0.000000 -3.684341 26.886393 1.800572 -80.203314 21.104924 4.278313 -3.877233 -18.024758 -0.017828 -5.538457 6.719449 -0.327475 -0.058639 -0.108719 -0.000000 0.000000 0.000000 0.000000 0.000000 0.000000 0.000000 10.411821 -6.348080 -0.067481 52.962051 15.173628 9.083628 2.041936 47.271426 0.014339 1.962867 6.663653 0.115053 0.055151 -0.183639 -0.000000 0.000000 0.000000 0.000000 0.000000 0.000000 0.000000 
-10.274869 17.149037 -1.335436 6.807204 81.426694 11.501509 -4.762676 0.104338 -3.071986 -1.453799 0.318728 -2.926711 -5.124088 0.231313 2.877650 11.025689 -12.480101 -10.965182 -1.465266 -0.068281 -0.876133 0.000000 0.000000 0.000000 -3.595396 26.463876 1.802828 -79.830680 20.201964 4.634612 -3.873731 -17.858119 -0.017080 -5.301905 6.631225 -0.308952 -0.060727 -0.104250 -0.000000 0.000000 0.000000 0.000000 0.000000 0.000000 0.000000 10.590024 -6.484057 -0.079497 53.816050 14.475702 8.680674 2.076721 47.114583 0.014417 1.909495 6.663835 0.111768 0.057384 -0.182356 -0.000000 0.000000 0.000000 0.000000 0.000000 0.000000 0.000000 
-10.106344 17.142446 -1.340907 7.895834 81.614234 12.503875 -4.837679 -0.048024 -2.914115 -1.466086 0.176706 -2.908187 -5.152280 0.090719 2.829196 11.060177 -12.576190 -11.012022 -1.504434 -0.070554 -0.890134 0.000000 0.000000 0.000000 -3.507305 26.035842 1.806372 -79.445456 19.183408 4.941313 -3.869116 -17.650508 -0.016209 -5.000172 6.521858 -0.286024 -0.063224 -0.099128 -0.000000 0.000000 0.000000 0.000000 0.000000 0.000000 0.000000 10.748400 -6.618299 -0.086717 54.681065 13.757395 8.232379 2.112535 46.927565 0.014474 1.836955 6.680133 0.107483 0.059750 -0.181258 -0.000000 0.000000 0.000000 0.000000 0.000000 0.000000 0.000000 
-9.940618 17.135595 -1.348352 8.650004 81.762705 13.185727 -4.832102 -0.179723 -2.745238 -1.463851 0.049974 -2.887446 -5.180214 -0.033884 2.781389 11.077408 -12.658851 -11.060882 -1.544858 -0.072878 -0.904915 0.000000 0.000000 0.000000 -3.428725 25.617572 1.805346 -79.044821 18.055409 5.190748 -3.860416 -17.334831 -0.014830 -4.565976 6.165450 -0.246386 -0.066199 -0.092867 -0.000000 0.000000 0.000000 0.000000 0.000000 0.000000 0.000000 10.885853 -6.736029 -0.089962 55.561763 13.003499 7.717211 2.150300 46.702619 0.014533 1.760452 6.712952 0.103297 0.062055 -0.180239 -0.000000 0.000000 0.000000 0.000000 0.000000 0.000000 0.000000 
-9.777186 17.129041 -1.357533 9.052193 81.860152 13.527529 -4.751811 -0.290642 -2.571915 -1.448855 -0.061200 -2.865171 -5.210009 -0.142349 2.738738 11.084501 -12.739387 -11.111891 -1.585745 -0.075183 -0.920446 0.000000 0.000000 0.000000 -3.341880 25.201332 1.806419 -78.638934 16.828025 5.298209 -3.856252 -17.035721 -0.013769 -4.130715 6.000331 -0.216251 -0.069556 -0.086508 -0.000000 0.000000 0.000000 0.000000 0.000000 0.000000 0.000000 11.014406 -6.847248 -0.089519 56.455315 12.244993 7.151539 2.191929 46.406537 0.014604 1.676099 6.769730 0.098810 0.064414 -0.179262 -0.000000 0.000000 0.000000 0.000000 0.000000 0.000000 0.000000 
-9.615491 17.123377 -1.368047 9.121503 81.903299 13.547568 -4.607603 -0.381501 -2.400337 -1.423064 -0.156868 -2.841390 -5.241624 -0.234728 2.704943 11.086600 -12.832350 -11.165190 -1.626813 -0.077442 -0.936742 0.000000 0.000000 0.000000 -3.254329 24.807193 1.801292 -78.219486 15.507868 5.265656 -3.854005 -16.692127 -0.012641 -3.635975 5.788709 -0.182812 -0.073329 -0.079558 -0.000000 0.000000 0.000000 0.000000 0.000000 0.000000 0.000000 11.144319 -6.973382 -0.086009 57.359877 11.514726 6.552975 2.239453 46.004180 0.014695 1.578923 6.855814 0.093923 0.066956 -0.178179 -0.000000 0.000000 0.000000 0.000000 0.000000 0.000000 0.000000 
-9.455046 17.119140 -1.379344 8.901695 81.889542 13.289314 -4.407420 -0.454085 -2.240651 -1.388545 -0.238684 -2.820852 -5.278223 -0.313152 2.669616 11.075363 -12.876279 -11.202993 -1.671342 -0.080230 -0.948825 0.000000 0.000000 0.000000 -3.157581 24.413039 1.796204 -77.782923 14.141799 5.100870 -3.852584 -16.379887 -0.011705 -3.095439 5.680999 -0.151774 -0.077432 -0.072397 -0.000000 0.000000 0.000000 0.000000 0.000000 0.000000 0.000000 11.258275 -7.047960 -0.083239 58.312398 10.723963 5.816777 2.291953 45.516770 0.014836 1.509430 6.952396 0.090731 0.069084 -0.176898 -0.000000 0.000000 0.000000 0.000000 0.000000 0.000000 0.000000 
